<svg width="16" height="16" viewBox="0 0 16 16" fill="none" xmlns="http://www.w3.org/2000/svg">
<rect x="0.5" y="0.5" width="15" height="15" rx="1.5" stroke="#C9C917"/>
<path d="M5.71733 12V4.72727H8.4446C9.00331 4.72727 9.47206 4.83144 9.85085 5.03977C10.232 5.24811 10.5196 5.53456 10.7138 5.89915C10.9103 6.26136 11.0085 6.6733 11.0085 7.13494C11.0085 7.60133 10.9103 8.01562 10.7138 8.37784C10.5173 8.74006 10.2273 9.02533 9.84375 9.23366C9.46023 9.43963 8.98793 9.54261 8.42685 9.54261H6.61932V8.45952H8.24929C8.57599 8.45952 8.84351 8.4027 9.05185 8.28906C9.26018 8.17543 9.41406 8.01918 9.51349 7.82031C9.61529 7.62145 9.66619 7.39299 9.66619 7.13494C9.66619 6.87689 9.61529 6.64962 9.51349 6.45312C9.41406 6.25663 9.259 6.10393 9.0483 5.99503C8.83996 5.88376 8.57126 5.82812 8.24219 5.82812H7.0348V12H5.71733Z" fill="#C9C917"/>
</svg>
