<svg width="16" height="16" viewBox="0 0 16 16" fill="none" xmlns="http://www.w3.org/2000/svg">
<rect x="0.5" y="0.5" width="15" height="15" rx="1.5" stroke="#CACA17"/>
<mask id="path-2-inside-1_12_2" fill="white">
<path d="M6.948 11H6.068V5.28H8.452C9.532 5.28 10.324 5.784 10.324 6.984C10.324 8.184 9.532 8.68 8.452 8.68H6.948V11ZM6.948 7.92H8.412C9.076 7.92 9.412 7.624 9.412 6.984C9.412 6.336 9.076 6.04 8.412 6.04H6.948V7.92Z"/>
</mask>
<path d="M6.948 11V12H7.948V11H6.948ZM6.068 11H5.068V12H6.068V11ZM6.068 5.28V4.28H5.068V5.28H6.068ZM6.948 8.68V7.68H5.948V8.68H6.948ZM6.948 7.92H5.948V8.92H6.948V7.92ZM6.948 6.04V5.04H5.948V6.04H6.948ZM6.948 10H6.068V12H6.948V10ZM7.068 11V5.28H5.068V11H7.068ZM6.068 6.28H8.452V4.28H6.068V6.28ZM8.452 6.28C8.85444 6.28 9.06312 6.37588 9.15486 6.45192C9.21507 6.50183 9.324 6.62007 9.324 6.984H11.324C11.324 6.14793 11.0369 5.41417 10.4311 4.91208C9.85688 4.43612 9.12956 4.28 8.452 4.28V6.28ZM9.324 6.984C9.324 7.34758 9.21545 7.46222 9.15762 7.5098C9.06671 7.5846 8.85776 7.68 8.452 7.68V9.68C9.12624 9.68 9.85329 9.5274 10.4284 9.0542C11.0365 8.55378 11.324 7.82041 11.324 6.984H9.324ZM8.452 7.68H6.948V9.68H8.452V7.68ZM5.948 8.68V11H7.948V8.68H5.948ZM6.948 8.92H8.412V6.92H6.948V8.92ZM8.412 8.92C8.871 8.92 9.41268 8.8202 9.83891 8.42714C10.2812 8.01927 10.412 7.4712 10.412 6.984H8.412C8.412 7.05964 8.4017 7.0799 8.40693 7.06518C8.40992 7.05679 8.41688 7.04019 8.43044 7.01917C8.44422 6.99782 8.46198 6.97632 8.48309 6.95686C8.50404 6.93753 8.52389 6.92427 8.53914 6.91591C8.55395 6.90778 8.5618 6.90569 8.55901 6.90653C8.55596 6.90745 8.5432 6.91097 8.51819 6.91418C8.49317 6.9174 8.45828 6.92 8.412 6.92V8.92ZM10.412 6.984C10.412 6.49621 10.2831 5.9461 9.84128 5.53605C9.41433 5.13978 8.8709 5.04 8.412 5.04V7.04C8.45829 7.04 8.4931 7.0426 8.51798 7.04581C8.54285 7.04901 8.55537 7.05249 8.55813 7.05333C8.56062 7.05408 8.55244 7.05185 8.53733 7.04352C8.52176 7.03493 8.50173 7.02145 8.48072 7.00195C8.45957 6.98233 8.44198 6.96081 8.42847 6.93971C8.4152 6.91898 8.40859 6.90291 8.40593 6.89537C8.40343 6.88826 8.40505 6.89051 8.40726 6.90529C8.40949 6.92021 8.412 6.94577 8.412 6.984H10.412ZM8.412 5.04H6.948V7.04H8.412V5.04ZM5.948 6.04V7.92H7.948V6.04H5.948Z" fill="#CACA17" mask="url(#path-2-inside-1_12_2)"/>
</svg>
